# Blender v2.81 (sub 16) OBJ File: ''
# www.blender.org
mtllib 2_finger.mtl
o 2_finger
v 0.009744 0.010950 0.042049
v 0.009676 0.010950 0.058969
v 0.009709 -0.010850 0.058941
v 0.009747 0.009450 0.029210
v 0.009750 -0.010850 0.041939
v 0.009657 -0.011150 0.028756
v 0.009731 -0.013550 0.042084
v 0.009630 -0.011150 0.025386
v 0.009738 -0.013550 0.012023
v 0.009711 0.009450 0.025168
v 0.009731 -0.010850 0.011916
v 0.009750 0.010950 0.012061
v 0.009717 -0.010850 -0.004841
v 0.009668 0.010950 -0.005050
v 0.009709 0.013450 0.011859
v 0.009738 0.013450 0.041977
v -0.002187 -0.011413 -0.005217
v 0.000000 -0.011450 -0.005500
v -0.004343 -0.011437 -0.003546
v -0.002669 -0.011436 0.004930
v -0.005322 -0.011435 0.001764
v -0.001110 -0.011352 -0.005491
v -0.000000 -0.011338 -0.005488
v 0.002728 -0.011435 0.004899
v 0.004301 -0.011435 -0.003598
v -0.005560 -0.011412 -0.001051
v -0.004283 -0.011427 0.003581
v 0.000012 -0.011426 0.005652
v 0.004293 -0.011427 0.003570
v 0.005338 -0.011436 0.001711
v 0.005550 -0.011413 -0.001088
v 0.002203 -0.011350 -0.005218
v 0.005550 -0.010949 -0.001175
v 0.005528 -0.010944 0.001008
v 0.004770 -0.010888 0.003050
v 0.002662 -0.010864 0.004930
v -0.000012 -0.010890 0.005663
v -0.002738 -0.010862 0.004888
v -0.004296 -0.010876 0.003567
v -0.005343 -0.010864 0.001690
v -0.005560 -0.010890 -0.001072
v -0.004290 -0.010862 -0.003603
v -0.002050 -0.010949 -0.005309
v 0.001163 -0.010946 -0.005489
v 0.003325 -0.010862 -0.004509
v 0.004708 -0.010873 -0.003001
v -0.000000 -0.010940 -0.005630
v 0.005636 -0.010940 -0.000174
v -0.005941 -0.010850 0.008091
v -0.008474 -0.010850 0.009530
v -0.009709 -0.010850 -0.004941
v -0.009750 -0.010850 0.012061
v 0.005969 -0.010850 0.008124
v 0.008270 -0.010850 0.009326
v 0.008474 -0.010850 -0.007270
v -0.005969 -0.010850 -0.008676
v 0.005941 -0.010850 -0.008709
v -0.008270 -0.010850 -0.007474
v -0.005969 -0.013550 0.008124
v -0.008270 -0.013550 0.009326
v -0.009709 -0.013550 0.011859
v 0.005941 -0.013550 0.008091
v 0.008474 -0.013550 0.009530
v -0.009681 -0.011150 0.025210
v -0.009714 -0.011150 0.029143
v -0.007727 -0.011150 0.026976
v 0.007444 -0.011150 0.026990
v -0.008270 0.010950 0.009326
v -0.009676 0.010950 -0.004969
v -0.009744 0.010950 0.011951
v 0.005941 0.010950 0.008091
v 0.008474 0.010950 0.009530
v 0.008270 0.010950 -0.007474
v -0.005969 0.010950 0.008124
v -0.005941 0.010950 -0.008709
v -0.008474 0.010950 -0.007270
v 0.005969 0.010950 -0.008676
v 0.005969 0.013450 0.008124
v 0.008270 0.013450 0.009326
v -0.005941 0.013450 0.008091
v -0.008474 0.013450 0.009530
v -0.009717 0.013450 0.011959
v 0.007727 0.009450 0.026976
v -0.007444 0.009450 0.026990
v -0.009677 0.009450 0.025329
v -0.009731 0.013450 0.042084
v -0.009750 0.010950 0.041939
v -0.009750 -0.013550 0.041939
v -0.009731 -0.010850 0.042084
v -0.009717 -0.010850 0.058841
v -0.009668 0.010950 0.059050
v 0.000012 -0.011418 0.059656
v 0.000000 -0.011450 0.048500
v -0.002182 -0.011418 0.048781
v -0.002669 -0.011436 0.058930
v -0.004343 -0.011435 0.050454
v -0.005593 -0.011435 0.054385
v -0.001110 -0.011352 0.048509
v -0.000000 -0.011338 0.048512
v 0.002728 -0.011438 0.058897
v 0.004300 -0.011436 0.050403
v -0.005307 -0.011424 0.052262
v -0.004766 -0.011418 0.057046
v 0.004294 -0.011424 0.057570
v 0.005338 -0.011436 0.055711
v 0.005550 -0.011413 0.052912
v 0.002203 -0.011350 0.048782
v 0.005617 -0.010879 0.054383
v 0.004769 -0.010884 0.057049
v 0.002662 -0.010863 0.058930
v -0.000012 -0.010888 0.059662
v -0.002738 -0.010863 0.058888
v -0.004295 -0.010873 0.057568
v -0.005343 -0.010863 0.055689
v -0.005559 -0.010888 0.052928
v -0.004292 -0.010865 0.050397
v -0.002050 -0.010949 0.048691
v 0.001163 -0.010946 0.048511
v 0.003325 -0.010863 0.049490
v 0.005041 -0.010873 0.051509
v -0.000000 -0.010940 0.048370
v 0.008474 -0.010850 0.044470
v -0.008270 -0.010850 0.044674
v 0.005941 -0.010850 0.045909
v -0.005969 -0.010850 0.045876
v -0.005941 -0.010850 0.062709
v 0.005969 -0.010850 0.062676
v -0.008474 -0.010850 0.061270
v 0.008270 -0.010850 0.061474
v 0.005969 -0.013550 0.045876
v 0.008270 -0.013550 0.044674
v -0.005941 -0.013550 0.045909
v -0.008474 -0.013550 0.044470
v -0.008474 0.010950 0.044470
v 0.008270 0.010950 0.044674
v -0.005941 0.010950 0.045909
v 0.005969 0.010950 0.045876
v 0.005941 0.010950 0.062709
v 0.008474 0.010950 0.061270
v -0.008270 0.010950 0.061474
v -0.005969 0.010950 0.062676
v -0.005969 0.013450 0.045876
v -0.008270 0.013450 0.044674
v 0.005941 0.013450 0.045909
v 0.008474 0.013450 0.044470
v -0.009698 0.009450 0.028814
vn 0.9891 0.0818 0.1225
vn 0.7309 0.6580 0.1811
vn 0.7327 -0.6526 0.1933
vn 0.9786 -0.1036 -0.1780
vn 0.9914 -0.0734 0.1085
vn 0.9845 0.1731 -0.0273
vn 0.7318 -0.6554 0.1869
vn 0.9596 0.1783 0.2176
vn 0.9744 -0.0059 -0.2249
vn 0.9709 -0.1399 0.1946
vn 0.9890 -0.0810 -0.1238
vn 0.9914 0.0744 -0.1074
vn 0.7338 -0.6554 -0.1790
vn 0.7298 0.6547 -0.1969
vn 0.9674 0.0074 -0.2530
vn 0.9736 0.0093 0.2282
vn 0.0083 -0.6594 0.7518
vn -0.3477 -0.6798 -0.6457
vn 0.0142 -0.9999 0.0022
vn 0.3320 -0.5560 -0.7620
vn -0.5888 -0.6593 -0.4676
vn -0.3378 -0.6599 0.6712
vn 0.5760 -0.6441 -0.5033
vn 0.7410 -0.6621 -0.1125
vn 0.7156 -0.6610 0.2258
vn -0.5698 -0.6693 0.4768
vn -0.7491 -0.6486 -0.1347
vn -0.7048 -0.6715 0.2288
vn 0.5371 -0.6407 0.5487
vn 0.3703 -0.6627 0.6509
vn 0.0248 -0.9877 -0.1547
vn -0.0502 -0.5348 -0.8435
vn 0.6160 -0.7738 -0.1475
vn 0.9379 -0.3467 0.0103
vn 0.5788 -0.8139 0.0500
vn 0.4812 -0.8128 0.3285
vn 0.3016 -0.7617 0.5734
vn -0.0308 -0.7328 0.6797
vn -0.3156 -0.7542 0.5758
vn -0.5156 -0.7456 0.4223
vn -0.6297 -0.7557 0.1800
vn -0.6300 -0.7673 -0.1201
vn -0.4981 -0.7595 -0.4185
vn -0.2462 -0.7600 -0.6016
vn -0.0535 0.3048 -0.9509
vn 0.0749 -0.4150 -0.9067
vn 0.0740 -0.8440 -0.5312
vn 0.3794 -0.7893 -0.4828
vn 0.5441 -0.7729 -0.3264
vn -0.0011 -1.0000 0.0019
vn 0.0000 -1.0000 0.0000
vn -0.7318 -0.6534 -0.1937
vn -0.9915 -0.0743 -0.1071
vn -0.0034 -1.0000 0.0085
vn 0.0011 -1.0000 0.0026
vn 0.0226 -0.9997 0.0005
vn 0.0021 -1.0000 -0.0026
vn -0.0018 -0.9997 -0.0259
vn -0.0072 -0.9999 -0.0072
vn 0.0057 -1.0000 -0.0054
vn -0.0015 -1.0000 -0.0015
vn -0.2461 0.0014 -0.9692
vn -0.1813 -0.6609 -0.7282
vn -0.5223 -0.6510 -0.5508
vn -0.7284 0.0109 -0.6851
vn -0.9676 -0.0074 -0.2525
vn 0.1862 -0.6537 -0.7335
vn 0.2418 0.0094 -0.9703
vn 0.6890 0.0075 -0.7248
vn 0.5533 -0.6506 -0.5202
vn -0.9693 0.1487 0.1961
vn -0.9780 0.1049 -0.1804
vn -0.5155 0.7061 0.4854
vn 0.8286 0.5596 0.0164
vn 0.0000 1.0000 -0.0000
vn -0.7309 0.6580 -0.1811
vn -0.9895 0.0835 -0.1181
vn 0.2455 -0.0009 -0.9694
vn 0.1814 0.6612 -0.7279
vn 0.5216 0.6509 -0.5516
vn 0.7289 -0.0110 -0.6845
vn -0.1859 0.6535 -0.7338
vn -0.2417 -0.0101 -0.9703
vn -0.6888 -0.0075 -0.7249
vn -0.5536 0.6504 -0.5201
vn -0.9727 0.0091 -0.2318
vn 0.5145 -0.7084 0.4832
vn 0.2534 -0.0019 -0.9674
vn 0.2399 0.0012 -0.9708
vn 0.6918 0.0022 -0.7221
vn 0.7226 -0.0028 -0.6912
vn -0.2534 0.0019 -0.9674
vn -0.2399 -0.0012 -0.9708
vn -0.6940 -0.0022 -0.7199
vn -0.7200 0.0021 -0.6940
vn -0.8282 -0.5602 0.0166
vn -0.9630 -0.1620 0.2151
vn -0.7315 0.6555 0.1876
vn -0.9843 -0.1746 -0.0244
vn -0.9914 0.0724 0.1090
vn -0.9745 -0.0069 0.2242
vn -0.9887 -0.0796 0.1268
vn -0.7325 -0.6574 0.1768
vn -0.7298 0.6547 0.1969
vn 0.3318 -0.5563 -0.7619
vn 0.0071 -0.6557 0.7550
vn 0.0153 -0.9999 0.0028
vn -0.3461 -0.6823 -0.6440
vn -0.3489 -0.6586 0.6668
vn 0.5951 -0.6155 -0.5168
vn 0.8205 -0.5487 -0.1606
vn 0.3702 -0.6590 0.6547
vn -0.5869 -0.6608 -0.4679
vn -0.6809 -0.5950 0.4270
vn 0.7493 -0.6207 0.2308
vn 0.5466 -0.6284 0.5535
vn -0.7829 -0.6188 0.0638
vn -0.7048 -0.6385 -0.3091
vn 0.0249 -0.9848 -0.1720
vn -0.0499 -0.5269 -0.8485
vn 0.5291 -0.8064 -0.2642
vn 0.5854 -0.8097 0.0401
vn 0.4993 -0.8059 0.3181
vn 0.3026 -0.7617 0.5730
vn -0.0042 -0.7709 0.6369
vn -0.3264 -0.7608 0.5609
vn -0.4489 -0.7699 0.4537
vn -0.5780 -0.7958 0.1806
vn -0.5827 -0.8053 -0.1090
vn -0.4953 -0.7611 -0.4187
vn -0.2458 -0.7592 -0.6026
vn 0.0731 -0.8423 -0.5340
vn 0.3812 -0.7906 -0.4792
vn 0.0046 -1.0000 -0.0038
vn -0.0061 -1.0000 -0.0056
vn -0.0012 -0.9994 -0.0332
vn -0.0021 -1.0000 0.0032
vn 0.0020 -1.0000 0.0032
vn -0.0021 -1.0000 0.0019
vn 0.0027 -1.0000 0.0040
vn 0.2461 0.0014 0.9692
vn 0.2416 -0.0094 0.9703
vn 0.5230 -0.6507 0.5504
vn 0.7289 0.0100 0.6846
vn -0.1863 -0.6536 0.7336
vn -0.2416 0.0094 0.9703
vn -0.6888 0.0073 0.7249
vn -0.5536 -0.6506 0.5199
vn -0.2455 -0.0009 0.9694
vn -0.2417 0.0101 0.9703
vn -0.5225 0.6507 0.5510
vn -0.7294 -0.0105 0.6840
vn 0.1859 0.6535 0.7338
vn 0.2417 -0.0101 0.9703
vn 0.6888 -0.0075 0.7249
vn 0.5541 0.6504 0.5196
vn -0.2534 -0.0019 0.9674
vn -0.2399 0.0012 0.9708
vn -0.6918 0.0023 0.7221
vn -0.7225 -0.0030 0.6914
vn 0.2534 0.0017 0.9674
vn 0.2399 -0.0012 0.9708
vn 0.6939 -0.0020 0.7201
vn 0.7199 0.0022 0.6940
vn -0.7373 -0.0102 -0.6755
vn -0.6286 0.0092 -0.7776
vn 0.6233 -0.0091 -0.7819
vn 0.7420 0.0115 -0.6703
usemtl Default_OBJ
s 1
f 1//1 2//2 3//3
f 4//4 5//5 6//6
f 6//6 5//5 7//7
f 6//6 7//7 8//8
f 8//8 7//7 9//9
f 8//8 9//9 10//10
f 10//10 9//9 11//11
f 10//10 11//11 12//12
f 12//12 11//11 13//13
f 12//12 13//13 14//14
f 12//12 15//15 10//10
f 10//10 15//15 16//16
f 10//10 16//16 4//4
f 4//4 16//16 1//1
f 4//4 1//1 5//5
f 5//5 1//1 3//3
f 28//17 17//18 18//19
f 28//17 18//19 32//20
f 19//21 28//17 20//22
f 28//17 19//21 17//18
f 28//17 32//20 25//23
f 25//23 31//24 28//17
f 28//17 31//24 30//25
f 19//21 20//22 27//26
f 19//21 27//26 26//27
f 26//27 27//26 21//28
f 28//17 30//25 29//29
f 28//17 29//29 24//30
f 23//31 17//18 22//32
f 31//24 33//33 30//25
f 30//25 33//34 34//35
f 30//25 34//35 35//36
f 30//25 35//36 29//29
f 29//29 35//36 24//30
f 24//30 35//36 36//37
f 24//30 36//37 28//17
f 28//17 36//37 37//38
f 28//17 37//38 20//22
f 20//22 37//38 38//39
f 20//22 38//39 27//26
f 27//26 38//39 39//40
f 27//26 39//40 21//28
f 21//28 39//40 40//41
f 21//28 40//41 26//27
f 26//27 40//41 41//42
f 26//27 41//42 19//21
f 19//21 41//42 42//43
f 19//21 42//43 17//18
f 17//18 42//43 43//44
f 17//18 43//44 22//32
f 22//32 43//44 44//45
f 22//46 44//47 32//20
f 32//20 44//47 45//48
f 32//20 45//48 25//23
f 25//23 45//48 46//49
f 25//23 46//49 31//24
f 31//24 46//49 33//33
f 49//50 50//51 51//52
f 51//52 50//51 52//53
f 53//54 38//39 37//38
f 13//13 11//11 54//55
f 13//13 54//55 34//35
f 54//55 35//36 34//35
f 53//54 37//38 36//37
f 53//54 36//37 54//55
f 54//55 36//37 35//36
f 34//35 48//56 13//13
f 13//13 48//56 33//33
f 13//13 33//33 46//49
f 13//13 46//49 55//57
f 55//57 46//49 45//48
f 42//43 41//42 51//52
f 51//52 41//42 40//41
f 51//52 40//41 49//50
f 47//58 56//59 44//47
f 44//47 56//59 57//60
f 44//47 57//60 45//48
f 45//48 57//60 55//57
f 42//43 51//52 58//61
f 47//58 43//44 56//59
f 56//59 43//44 42//43
f 56//59 42//43 58//61
f 40//41 39//40 49//50
f 49//50 39//40 38//39
f 49//50 38//39 53//54
f 49//62 59//63 60//64
f 49//62 60//64 50//65
f 50//65 60//64 61//66
f 50//65 61//66 52//53
f 62//67 53//68 54//69
f 62//67 54//69 63//70
f 63//70 54//69 11//11
f 63//70 11//11 9//9
f 53//68 62//67 49//62
f 49//62 62//67 59//63
f 64//71 65//72 66//73
f 6//6 8//8 67//74
f 68//75 69//76 70//77
f 14//14 71//75 72//75
f 14//14 72//75 12//12
f 71//75 14//14 73//75
f 74//75 75//75 76//75
f 75//75 74//75 71//75
f 75//75 71//75 77//75
f 71//75 73//75 77//75
f 69//76 68//75 74//75
f 69//76 74//75 76//75
f 71//78 78//79 79//80
f 71//78 79//80 72//81
f 72//81 79//80 15//15
f 72//81 15//15 12//12
f 80//82 74//83 68//84
f 80//82 68//84 81//85
f 81//85 68//84 70//77
f 81//85 70//77 82//86
f 78//79 71//78 80//82
f 80//82 71//78 74//83
f 10//10 4//4 83//87
f 57//88 77//89 73//90
f 57//88 73//90 55//91
f 55//91 73//90 14//14
f 55//91 14//14 13//13
f 77//89 57//88 75//92
f 75//92 57//88 56//93
f 75//92 56//93 58//94
f 75//92 58//94 76//95
f 76//95 58//94 51//52
f 76//95 51//52 69//76
f 8//8 10//10 83//87
f 8//8 83//87 67//74
f 66//73 84//96 85//97
f 66//73 85//97 64//71
f 69//76 51//52 70//77
f 70//77 51//52 52//53
f 82//86 85//97 86//98
f 86//98 85//97 146//99
f 86//98 146//99 87//100
f 88//101 65//72 64//71
f 65//72 88//101 146//99
f 146//99 88//101 89//102
f 146//99 89//102 87//100
f 87//100 89//102 90//103
f 87//100 90//103 91//104
f 82//86 70//77 85//97
f 85//97 70//77 52//53
f 85//97 52//53 64//71
f 64//71 52//53 61//66
f 64//71 61//66 88//101
f 107//105 92//106 93//107
f 93//107 92//106 94//108
f 94//108 92//106 95//109
f 92//106 107//105 101//110
f 106//111 100//112 101//110
f 101//110 100//112 92//106
f 96//113 94//108 103//114
f 103//114 94//108 95//109
f 100//112 106//111 105//115
f 100//112 105//115 104//116
f 97//117 102//118 103//114
f 103//114 102//118 96//113
f 99//119 94//108 98//120
f 106//111 120//121 108//122
f 106//111 108//122 105//115
f 105//115 108//122 109//123
f 105//115 109//123 104//116
f 104//116 109//123 100//112
f 100//112 109//123 110//124
f 100//112 110//124 92//106
f 92//106 110//124 111//125
f 92//106 111//125 95//109
f 95//109 111//125 112//126
f 95//109 112//126 103//114
f 103//114 112//126 113//127
f 103//114 113//127 114//128
f 103//114 114//128 97//117
f 97//117 114//128 115//129
f 97//117 115//129 102//118
f 102//118 115//129 96//113
f 96//113 115//129 116//130
f 96//113 116//130 94//108
f 94//108 116//130 117//131
f 94//108 117//131 98//120
f 98//120 117//131 118//45
f 98//46 118//132 107//105
f 107//105 118//132 119//133
f 107//105 119//133 101//110
f 101//110 119//133 120//121
f 101//110 120//121 106//111
f 3//3 122//51 5//5
f 90//103 89//102 123//51
f 122//51 3//3 124//134
f 124//134 3//3 108//122
f 124//134 108//122 120//121
f 3//3 109//123 108//122
f 124//134 120//121 119//133
f 124//134 119//133 118//132
f 124//134 118//132 125//135
f 125//135 118//132 121//136
f 121//136 117//131 125//135
f 125//135 117//131 116//130
f 116//130 115//129 125//135
f 125//135 115//129 90//103
f 125//135 90//103 123//51
f 126//137 112//126 111//125
f 126//137 111//125 127//138
f 112//126 126//137 128//139
f 112//126 128//139 113//127
f 113//127 128//139 114//128
f 114//128 128//139 90//103
f 114//128 90//103 115//129
f 127//138 111//125 110//124
f 127//138 110//124 129//140
f 129//140 110//124 109//123
f 129//140 109//123 3//3
f 124//141 130//142 131//143
f 124//141 131//143 122//144
f 122//144 131//143 7//7
f 122//144 7//7 5//5
f 132//145 125//146 123//147
f 132//145 123//147 133//148
f 133//148 123//147 89//102
f 133//148 89//102 88//101
f 125//146 132//145 124//141
f 124//141 132//145 130//142
f 130//51 132//145 88//51
f 132//145 133//148 88//51
f 61//51 59//63 9//51
f 61//51 9//51 88//51
f 88//51 9//51 7//7
f 88//51 7//7 130//51
f 130//51 7//7 131//143
f 61//51 60//64 59//63
f 59//63 62//67 9//51
f 9//51 62//67 63//70
f 87//100 91//104 134//75
f 2//2 1//1 135//75
f 91//104 136//75 134//75
f 137//75 138//75 139//75
f 136//75 91//104 140//75
f 2//2 135//75 137//75
f 2//2 137//75 139//75
f 140//75 141//75 136//75
f 136//75 141//75 137//75
f 137//75 141//75 138//75
f 136//149 142//150 143//151
f 136//149 143//151 134//152
f 134//152 143//151 86//98
f 134//152 86//98 87//100
f 144//153 137//154 135//155
f 144//153 135//155 145//156
f 145//156 135//155 1//1
f 145//156 1//1 16//16
f 142//150 136//149 144//153
f 144//153 136//149 137//154
f 84//96 146//99 85//97
f 86//98 16//75 82//75
f 82//75 16//75 15//75
f 15//75 79//80 78//79
f 80//82 82//75 78//79
f 78//79 82//75 15//75
f 86//98 142//75 16//75
f 16//75 142//75 144//153
f 16//75 144//153 145//156
f 86//98 143//151 142//75
f 80//82 81//85 82//75
f 126//157 141//158 140//159
f 126//157 140//159 128//160
f 128//160 140//159 91//104
f 128//160 91//104 90//103
f 141//158 126//157 138//161
f 138//161 126//157 127//162
f 138//161 127//162 129//163
f 138//161 129//163 139//164
f 139//164 129//163 3//3
f 139//164 3//3 2//2
f 65//72 146//99 66//165
f 66//73 146//166 84//96
f 67//74 83//87 6//167
f 6//6 83//168 4//4
l 23 32
l 99 107
