# Blender v2.81 (sub 16) OBJ File: ''
# www.blender.org
mtllib 4_finger.mtl
o 4_0finger
v 0.000779 -0.000798 0.015700
v -0.000169 -0.000958 0.011400
v -0.000500 -0.000866 0.015700
v -0.000914 -0.000332 0.011400
v -0.000958 -0.000169 0.015700
v -0.000826 0.000645 0.011400
v -0.000779 0.000798 0.015700
v 0.000751 0.000905 0.011400
v 0.000500 0.000866 0.015700
v 0.000958 0.000169 0.015700
v 0.000798 -0.000779 0.011400
v -0.009800 -0.013450 0.015700
v -0.009800 0.013450 0.015700
v -0.001000 0.000000 0.015700
v 0.009800 -0.013450 0.015700
v 0.000000 -0.001000 0.015700
v 0.000000 0.001000 0.015700
v 0.009800 0.013450 0.015700
v 0.001000 0.000000 0.015700
v 0.002637 0.010450 0.002792
v 0.000396 0.010450 0.003742
v -0.002637 0.010450 -0.002792
v 0.000000 0.010450 0.003800
v -0.000396 0.010450 -0.003742
v 0.000000 0.010450 -0.003800
v 0.003911 0.010450 0.000159
v 0.001174 0.010450 -0.003614
v 0.002792 0.010450 -0.002637
v -0.001174 0.010450 0.003614
v -0.002792 0.010450 0.002637
v -0.003742 0.010450 0.000396
v -0.003800 0.010450 0.000000
v -0.003614 0.010450 -0.001174
v 0.003800 0.011250 0.000000
v 0.003614 0.011250 -0.001174
v 0.006603 0.011250 -0.001265
v -0.008343 0.011250 -0.006020
v -0.002792 0.011250 -0.002637
v 0.002454 0.011250 -0.004742
v -0.009746 0.011250 -0.003985
v -0.003911 0.011250 0.000159
v -0.009800 0.011250 0.011400
v -0.002637 0.011250 0.002792
v 0.002637 0.011250 -0.002792
v -0.000159 0.011250 -0.003911
v -0.002599 0.011250 -0.006237
v 0.000159 0.011250 0.003911
v 0.009800 0.011250 0.011400
v 0.002792 0.011250 0.002637
v 0.009482 0.011250 0.004076
v 0.003742 0.011250 0.000396
v -0.000576 0.013450 -0.005982
v 0.009737 0.013450 0.006099
v -0.009520 0.013450 -0.004843
v 0.008242 0.013450 0.001046
v 0.004765 0.013450 -0.003103
v -0.007485 0.013450 -0.006246
v 0.009800 -0.011050 0.011400
v 0.001000 0.000000 0.011400
v -0.009800 -0.011050 0.011400
v 0.000000 -0.001000 0.011400
v -0.001000 0.000000 0.011400
v 0.009800 -0.011370 0.009700
v -0.009800 -0.011350 0.009700
v 0.002819 -0.009750 -0.001026
v 0.001877 -0.009750 -0.002390
v 0.002026 -0.009750 0.002265
v -0.002968 -0.009750 -0.000929
v -0.002582 -0.009750 0.001602
v 0.003000 -0.009750 0.000019
v -0.000680 -0.009750 -0.003035
v -0.000401 -0.009750 0.003084
v 0.009482 -0.013450 0.004076
v -0.002599 -0.013450 -0.006237
v -0.009746 -0.013450 -0.003985
v 0.002454 -0.013450 -0.004742
v -0.008343 -0.013450 -0.006020
v 0.006603 -0.013450 -0.001265
v 0.009737 -0.011450 0.006099
v 0.001877 -0.011450 0.002390
v 0.002819 -0.011450 0.001026
v -0.000097 -0.011450 0.003037
v -0.002026 -0.011450 0.002265
v -0.002943 -0.011450 0.000346
v -0.009520 -0.011450 -0.004843
v -0.001877 -0.011450 -0.002390
v -0.007485 -0.011450 -0.006246
v -0.003000 -0.011450 0.000000
v -0.002819 -0.011450 -0.001026
v 0.008242 -0.011450 0.001046
v 0.003000 -0.011450 0.000000
v 0.002943 -0.011450 -0.000346
v 0.004765 -0.011450 -0.003103
v 0.002026 -0.011450 -0.002265
v -0.000576 -0.011450 -0.005982
v 0.000097 -0.011450 -0.003037
v 0.003000 -0.009750 0.000000
vn -0.0532 0.9983 -0.0254
vn 0.8135 0.5815 -0.0061
vn 0.6425 0.7655 0.0332
vn 0.6687 0.7430 0.0278
vn 0.8359 0.5488 -0.0123
vn 0.9959 -0.0898 0.0136
vn 0.9833 -0.1819 -0.0043
vn 0.2887 -0.9569 0.0308
vn 0.9275 -0.3739 0.0031
vn 0.1623 -0.9862 0.0332
vn 0.0532 -0.9986 -0.0059
vn -0.3498 -0.9364 -0.0288
vn -0.4373 -0.8987 -0.0336
vn -0.8347 -0.5481 -0.0536
vn -0.9987 -0.0281 0.0433
vn -0.9833 0.1819 -0.0036
vn -0.3050 0.9524 0.0029
vn -0.9524 0.3050 -0.0029
vn -0.1819 0.9833 0.0036
vn -0.0000 0.0000 1.0000
vn 0.0000 -1.0000 0.0000
vn 0.0000 1.0000 -0.0000
vn -0.6897 0.6255 -0.3648
vn -0.1824 0.6486 -0.7390
vn 0.0933 -0.0027 -0.9956
vn 0.2579 -0.0302 -0.9657
vn 0.4774 0.0434 -0.8776
vn 0.5986 -0.0325 -0.8004
vn 0.6385 -0.1032 -0.7627
vn 0.8004 0.0325 -0.5986
vn 0.7624 0.1032 -0.6389
vn 0.8776 -0.0434 -0.4774
vn 0.9653 0.0315 -0.2592
vn 0.9947 -0.0054 -0.1028
vn -0.4754 -0.0335 -0.8792
vn -0.9720 0.0044 -0.2348
vn -0.9155 -0.0400 0.4004
vn -0.9179 -0.0794 0.3888
vn -0.7735 0.0097 0.6337
vn -0.6881 0.0499 0.7239
vn -0.3894 0.2091 0.8970
vn -0.3583 0.2642 0.8954
vn -0.0789 -0.2292 0.9702
vn 0.4004 -0.0400 0.9155
vn 0.3888 -0.0794 0.9179
vn 0.6631 -0.0011 0.7486
vn 0.7486 0.0011 0.6631
vn 0.9155 0.0400 0.4004
vn 0.9179 0.0794 0.3888
vn 0.9702 0.2292 -0.0789
vn 0.8970 -0.2091 -0.3894
vn 0.8954 -0.2642 -0.3583
vn 0.7502 -0.0387 -0.6600
vn 0.6600 0.0387 -0.7502
vn 0.3894 0.2091 -0.8970
vn 0.3583 0.2642 -0.8954
vn 0.0789 -0.2292 -0.9702
vn -0.4004 -0.0400 -0.9155
vn -0.3888 -0.0794 -0.9179
vn -0.6337 0.0097 -0.7735
vn -0.7239 0.0499 -0.6881
vn -0.8970 0.2091 -0.3894
vn -0.8954 0.2642 -0.3583
vn -0.9702 -0.2292 -0.0789
vn 0.0000 0.0000 -1.0000
vn 0.0033 0.9948 -0.1021
vn 0.0020 0.9957 -0.0927
vn 0.0009 0.9829 -0.1844
vn 0.0000 0.9848 -0.1738
vn 0.5059 0.6435 0.5745
vn 0.5147 0.8061 -0.2921
vn 0.4447 0.6457 -0.6208
vn 0.0259 0.7005 0.7132
vn -0.7444 -0.6437 -0.1776
vn -0.3722 -0.6238 -0.6873
vn 0.0075 0.9998 -0.0158
vn -0.0006 1.0000 -0.0062
vn 0.0009 0.9999 -0.0112
vn 0.0062 1.0000 -0.0069
vn 0.0053 1.0000 -0.0045
vn 0.0022 1.0000 -0.0028
vn 0.0904 0.0029 -0.9959
vn 0.2587 -0.0416 -0.9651
vn 0.4770 0.0564 -0.8771
vn 0.6021 -0.0425 -0.7973
vn 0.6382 -0.1134 -0.7615
vn 0.7973 0.0425 -0.6021
vn 0.7615 0.1134 -0.6382
vn 0.8771 -0.0564 -0.4770
vn 0.9659 0.0389 -0.2561
vn 0.9954 -0.0309 -0.0905
vn -0.8825 0.0328 -0.4692
vn -0.2344 0.0193 -0.9719
vn -1.0000 0.0000 0.0000
vn -1.0000 -0.0017 -0.0006
vn -1.0000 0.0039 -0.0020
vn -1.0000 0.0085 -0.0018
vn -1.0000 -0.0018 -0.0031
vn 0.9998 -0.0169 -0.0049
vn 0.9991 -0.0399 -0.0138
vn 1.0000 -0.0002 -0.0068
vn 1.0000 0.0039 -0.0020
vn 1.0000 0.0000 0.0000
vn 0.9994 -0.0347 0.0064
vn 0.9946 -0.0525 0.0900
vn 0.8804 0.0685 0.4693
vn 0.9089 0.1366 0.3940
vn 0.5822 0.0060 0.8130
vn 0.0066 -0.0263 0.9996
vn -0.3701 -0.0915 0.9245
vn -0.7475 0.0144 0.6641
vn -0.5566 0.1374 0.8194
vn -0.7569 0.0072 0.6535
vn -0.8951 -0.1260 0.4278
vn -0.9838 0.0980 0.1500
vn -0.9926 -0.0820 -0.0898
vn -0.9371 -0.0627 -0.3433
vn -0.9338 -0.0619 -0.3525
vn -0.8223 -0.0398 -0.5677
vn -0.5461 0.0680 -0.8349
vn -0.6643 0.1941 -0.7218
vn -0.2305 0.0557 -0.9715
vn 0.0724 -0.0162 -0.9972
vn 0.6721 -0.0400 -0.7393
vn 0.8972 -0.1058 -0.4288
vn 0.9848 0.0025 -0.1737
usemtl Default_OBJ
s 1
f 1//1 2//1 3//1
f 3//2 2//3 4//4
f 3//2 4//4 5//5
f 5//6 4//6 6//6
f 5//7 6//8 7//9
f 7//9 6//8 8//10
f 7//11 8//12 9//13
f 9//13 8//12 10//14
f 10//15 8//15 11//15
f 10//16 11//17 1//18
f 1//18 11//17 2//19
f 12//20 3//20 5//20
f 12//20 5//20 13//20
f 13//20 5//20 14//20
f 13//20 14//20 7//20
f 15//20 1//20 12//20
f 12//20 1//20 16//20
f 12//20 16//20 3//20
f 13//20 7//20 17//20
f 13//20 17//20 18//20
f 18//20 17//20 9//20
f 9//20 10//20 18//20
f 18//20 10//20 19//20
f 18//20 19//20 15//20
f 15//20 19//20 1//20
f 20//21 21//21 22//21
f 22//21 21//21 23//21
f 22//21 24//21 25//21
f 25//21 27//21 22//21
f 22//21 27//21 28//21
f 22//21 28//21 26//21
f 22//21 26//21 20//21
f 23//21 29//21 22//21
f 22//21 29//21 30//21
f 30//21 31//21 22//21
f 22//21 31//21 32//21
f 22//21 32//21 33//21
f 34//21 35//21 36//21
f 36//21 35//21 39//21
f 40//21 41//21 42//21
f 42//21 41//21 43//21
f 35//21 44//21 39//21
f 39//21 44//21 45//21
f 39//21 45//21 46//21
f 46//21 45//21 38//21
f 46//21 38//21 37//21
f 41//21 40//21 38//21
f 38//21 40//21 37//21
f 43//21 47//21 42//21
f 42//21 47//21 48//21
f 49//21 50//21 48//21
f 49//21 48//21 47//21
f 34//21 36//21 50//21
f 34//21 50//21 51//21
f 51//21 50//21 49//21
f 13//22 18//22 53//22
f 13//22 53//22 55//22
f 13//22 55//22 56//22
f 13//22 52//22 54//23
f 54//23 52//22 57//24
f 56//22 52//22 13//22
f 46//25 52//26 39//27
f 39//27 52//26 56//28
f 39//27 56//28 36//29
f 36//30 56//31 55//32
f 36//30 55//32 50//33
f 50//33 55//32 53//34
f 52//26 46//25 57//24
f 57//24 46//25 37//35
f 40//36 54//23 37//35
f 37//35 54//23 57//24
f 41//37 31//38 30//39
f 41//37 30//39 43//40
f 43//40 30//39 29//41
f 43//40 29//41 47//42
f 47//43 29//43 21//43
f 47//44 21//45 20//46
f 47//44 20//46 49//47
f 49//47 20//46 26//48
f 49//47 26//48 51//49
f 51//50 26//50 35//50
f 35//51 26//52 28//53
f 35//51 28//53 44//54
f 44//54 28//53 27//55
f 44//54 27//55 45//56
f 45//57 27//57 24//57
f 45//58 24//59 22//60
f 45//58 22//60 38//61
f 38//61 22//60 33//62
f 38//61 33//62 41//63
f 41//64 33//64 31//64
f 58//65 11//65 59//65
f 58//65 59//65 48//65
f 4//65 2//65 60//65
f 60//65 2//65 61//65
f 60//65 61//65 58//65
f 58//65 61//65 11//65
f 59//65 8//65 48//65
f 48//65 8//65 42//65
f 8//65 6//65 42//65
f 42//65 6//65 60//65
f 60//65 6//65 62//65
f 60//65 62//65 4//65
f 63//66 64//67 58//68
f 58//68 64//67 60//69
f 67//70 68//22 69//22
f 70//22 65//71 66//72
f 70//22 66//72 67//70
f 67//70 66//72 71//22
f 67//70 71//22 68//22
f 72//73 67//70 69//22
f 73//21 15//21 12//21
f 74//21 12//21 75//74
f 12//21 74//21 76//21
f 75//74 77//75 74//21
f 12//21 76//21 78//21
f 78//21 73//21 12//21
f 63//66 79//76 80//77
f 80//77 79//76 81//22
f 63//66 80//77 82//78
f 63//66 82//78 64//67
f 64//67 82//78 83//79
f 64//67 83//79 84//80
f 64//67 84//80 85//81
f 86//22 87//22 85//81
f 84//80 88//22 85//81
f 85//81 88//22 89//22
f 85//81 89//22 86//22
f 79//76 90//22 81//22
f 81//22 90//22 91//22
f 91//22 90//22 92//22
f 92//22 90//22 93//22
f 92//22 93//22 94//22
f 94//22 93//22 95//22
f 94//22 95//22 96//22
f 96//22 95//22 86//22
f 86//22 95//22 87//22
f 74//82 95//83 76//84
f 76//84 95//83 93//85
f 76//84 93//85 78//86
f 78//87 93//88 90//89
f 78//87 90//89 73//90
f 73//90 90//89 79//91
f 75//74 85//92 77//75
f 77//75 85//92 87//93
f 60//94 12//95 42//96
f 42//96 12//95 13//97
f 42//96 13//97 40//36
f 40//36 13//97 54//23
f 85//92 75//74 64//98
f 64//98 75//74 12//95
f 64//98 12//95 60//94
f 73//90 79//91 15//99
f 15//99 79//91 63//100
f 50//33 53//34 48//101
f 48//101 53//34 18//102
f 48//101 18//102 58//103
f 58//103 18//102 15//99
f 58//103 15//99 63//100
f 77//75 87//93 74//82
f 74//82 87//93 95//83
f 92//104 97//104 70//104
f 92//105 70//105 81//105
f 81//106 70//107 67//70
f 81//106 67//70 80//108
f 80//108 67//70 72//73
f 80//108 72//73 82//109
f 82//109 72//73 83//110
f 83//111 72//112 69//113
f 83//111 69//113 84//114
f 84//115 69//115 68//115
f 84//116 68//117 89//118
f 89//118 68//117 86//119
f 86//120 68//121 71//122
f 86//120 71//122 96//123
f 96//123 71//122 66//72
f 96//123 66//72 94//124
f 94//124 66//72 65//71
f 94//124 65//71 92//125
f 92//126 65//126 97//126
