# Blender v2.81 (sub 16) OBJ File: ''
# www.blender.org
mtllib 7_thumb.mtl
o 7_thumb
v 0.007813 -0.001720 -0.000167
v 0.008000 0.000000 0.000333
v 0.008000 0.000000 -0.000167
v 0.007813 0.001720 0.000333
v 0.007813 0.001720 -0.000167
v 0.007261 0.003359 0.000333
v 0.007261 0.003359 -0.000167
v 0.006369 0.004841 0.000333
v 0.006369 0.004841 -0.000167
v 0.005179 0.006097 0.000333
v 0.005179 0.006097 -0.000167
v 0.003747 0.007068 0.000333
v 0.003747 0.007068 -0.000167
v 0.001455 0.007909 0.000333
v 0.001147 0.007959 -0.000167
v -0.001294 0.007895 0.000333
v -0.001294 0.007895 -0.000167
v -0.002961 0.007432 0.000333
v -0.003904 0.007031 -0.000167
v -0.004489 0.006622 0.000333
v -0.005808 0.005502 0.000333
v -0.005808 0.005502 -0.000167
v -0.007231 0.003518 0.000333
v -0.006855 0.004124 -0.000167
v -0.007886 0.001575 -0.000167
v -0.007953 0.000865 0.000333
v -0.007886 -0.001575 0.000333
v -0.007953 -0.000865 -0.000167
v -0.007231 -0.003518 -0.000167
v -0.006855 -0.004124 0.000333
v -0.005808 -0.005502 0.000333
v -0.005808 -0.005502 -0.000167
v -0.003904 -0.007031 0.000333
v -0.004489 -0.006622 -0.000167
v -0.002961 -0.007432 -0.000167
v -0.001294 -0.007895 0.000333
v -0.001294 -0.007895 -0.000167
v 0.001147 -0.007959 0.000333
v 0.001455 -0.007909 -0.000167
v 0.003747 -0.007068 0.000333
v 0.003747 -0.007068 -0.000167
v 0.005179 -0.006097 0.000333
v 0.005179 -0.006097 -0.000167
v 0.006369 -0.004841 0.000333
v 0.006369 -0.004841 -0.000167
v 0.007261 -0.003359 0.000333
v 0.007261 -0.003359 -0.000167
v 0.007813 -0.001720 0.000333
v 0.008000 0.000000 0.000333
v 0.009144 -0.011450 0.004147
v 0.008912 -0.013450 0.004245
v 0.009800 -0.013450 0.004133
v 0.009800 0.013450 0.004133
v 0.008889 0.013450 0.004257
v 0.009124 0.011250 0.004149
v -0.009800 0.011250 0.004133
v -0.009800 -0.011450 0.004133
v -0.002027 -0.010750 0.013269
v -0.003009 -0.010750 0.015101
v 0.000097 -0.010750 0.018570
v -0.000097 -0.010750 0.012494
v -0.002582 -0.010750 0.017135
v 0.001500 -0.010750 0.018131
v 0.001878 -0.010750 0.013144
v -0.001500 -0.010750 0.018131
v 0.002975 -0.010750 0.014910
v 0.002680 -0.010750 0.016967
v 0.009800 -0.013450 -0.000167
v -0.009800 -0.013450 -0.000167
v 0.008737 -0.013450 0.009434
v -0.009726 -0.013450 0.019534
v -0.006482 -0.013450 0.021866
v 0.007694 -0.013450 0.013386
v 0.003765 -0.013450 0.018636
v -0.000009 -0.013450 0.020877
v -0.008253 -0.013450 0.021494
v -0.009227 -0.013450 0.020596
v -0.003010 -0.013450 0.021661
v 0.006126 -0.013450 0.016062
v 0.008826 -0.011450 0.004443
v -0.008099 -0.011450 0.021573
v -0.002680 -0.011450 0.016967
v -0.009227 -0.011450 0.020596
v 0.003009 -0.011450 0.015101
v 0.002582 -0.011450 0.017135
v 0.005603 -0.011450 0.016798
v -0.002975 -0.011450 0.014910
v -0.001878 -0.011450 0.013144
v 0.003029 -0.011450 0.019159
v -0.009746 -0.011450 0.019518
v -0.006268 -0.011450 0.021875
v -0.001500 -0.011450 0.018131
v -0.003010 -0.011450 0.021661
v -0.000097 -0.011450 0.018570
v 0.000353 -0.011450 0.020727
v 0.001500 -0.011450 0.018131
v 0.000097 -0.011450 0.012494
v 0.002027 -0.011450 0.013269
v 0.008714 -0.011450 0.009482
v 0.007844 -0.011450 0.013024
v 0.003614 0.010450 0.016707
v 0.002636 0.010450 0.018326
v -0.002234 0.010450 0.012459
v 0.001174 0.010450 0.019147
v 0.000000 0.010450 0.019333
v -0.001174 0.010450 0.019147
v -0.002234 0.010450 0.018607
v -0.003800 0.010450 0.015533
v -0.003074 0.010450 0.013299
v -0.003614 0.010450 0.014359
v -0.001174 0.010450 0.011919
v 0.000000 0.010450 0.011733
v 0.001174 0.010450 0.011919
v 0.002234 0.010450 0.012459
v 0.003074 0.010450 0.013299
v 0.003800 0.010450 0.015533
v 0.003614 0.010450 0.014359
v -0.003471 0.010450 0.017176
v 0.009800 0.013450 -0.000167
v -0.009800 0.013450 -0.000167
v 0.000353 0.013450 0.020727
v 0.003029 0.013450 0.019159
v 0.007844 0.013450 0.013024
v 0.008714 0.013450 0.009482
v -0.008099 0.013450 0.021573
v -0.009227 0.013450 0.020596
v -0.006268 0.013450 0.021875
v -0.009746 0.013450 0.019518
v 0.005603 0.013450 0.016798
v -0.003010 0.013450 0.021661
v 0.008835 0.011250 0.004441
v 0.003614 0.011250 0.014359
v 0.003074 0.011250 0.013299
v -0.001174 0.011250 0.011919
v -0.002234 0.011250 0.012459
v -0.009726 0.011250 0.019534
v -0.003614 0.011250 0.016707
v 0.002234 0.011250 0.012459
v 0.001174 0.011250 0.011919
v 0.000000 0.011250 0.011733
v 0.008737 0.011250 0.009434
v -0.003074 0.011250 0.013299
v -0.003614 0.011250 0.014359
v -0.003800 0.011250 0.015533
v -0.006482 0.011250 0.021866
v -0.008253 0.011250 0.021494
v -0.002636 0.011250 0.018326
v -0.009227 0.011250 0.020596
v 0.007694 0.011250 0.013386
v 0.006126 0.011250 0.016062
v -0.003010 0.011250 0.021661
v -0.001174 0.011250 0.019147
v -0.000009 0.011250 0.020877
v 0.000000 0.011250 0.019333
v 0.001174 0.011250 0.019147
v 0.003765 0.011250 0.018636
v 0.002234 0.011250 0.018607
v 0.003471 0.011250 0.017176
v 0.003800 0.011250 0.015533
v 0.000000 0.010450 0.011733
v 0.000000 0.011250 0.011733
v 0.000000 0.011250 0.019333
v 0.008000 0.000000 -0.000167
vn -0.9941 0.1081 0.0000
vn -0.9941 -0.1081 0.0000
vn -0.9477 -0.3192 0.0000
vn -0.9475 -0.3196 -0.0000
vn -0.8568 -0.5157 0.0000
vn -0.7259 -0.6878 0.0000
vn -0.5612 -0.8277 0.0000
vn -0.3418 -0.9397 0.0134
vn -0.3444 -0.9388 0.0000
vn -0.2212 -0.9748 0.0301
vn -0.1019 -0.9943 -0.0300
vn 0.0236 -0.9996 -0.0134
vn 0.0263 -0.9997 0.0000
vn 0.2759 -0.9607 0.0302
vn 0.2676 -0.9635 0.0000
vn 0.3059 -0.9403 0.1491
vn 0.3099 -0.9361 0.1664
vn 0.5069 -0.8546 -0.1130
vn 0.4614 -0.8704 -0.1720
vn 0.6127 -0.7869 0.0734
vn 0.6288 -0.7774 0.0172
vn 0.6261 -0.7797 0.0000
vn 0.8104 -0.5857 -0.0172
vn 0.8125 -0.5829 0.0000
vn 0.8917 -0.4197 0.1693
vn 0.8251 -0.5618 -0.0598
vn 0.9008 -0.3643 0.2365
vn 0.9647 -0.2007 -0.1706
vn 0.9376 -0.2550 -0.2364
vn 0.9954 -0.0302 0.0905
vn 0.9647 0.2007 0.1706
vn 0.9954 0.0302 -0.0905
vn 0.9376 0.2550 0.2364
vn 0.8917 0.4197 -0.1693
vn 0.9008 0.3643 -0.2365
vn 0.8251 0.5618 0.0598
vn 0.8104 0.5857 0.0172
vn 0.8125 0.5829 0.0000
vn 0.6288 0.7774 -0.0172
vn 0.6261 0.7797 0.0000
vn 0.5069 0.8546 0.1130
vn 0.6127 0.7869 -0.0734
vn 0.4614 0.8704 0.1720
vn 0.3059 0.9403 -0.1491
vn 0.3099 0.9361 -0.1664
vn 0.2759 0.9607 -0.0302
vn 0.2676 0.9635 0.0000
vn 0.0236 0.9996 0.0134
vn 0.0263 0.9997 0.0000
vn -0.1019 0.9943 0.0300
vn -0.2212 0.9748 -0.0301
vn -0.3418 0.9397 -0.0134
vn -0.3444 0.9388 0.0000
vn -0.5612 0.8277 0.0000
vn -0.7259 0.6878 0.0000
vn -0.8568 0.5157 0.0000
vn -0.9477 0.3192 0.0000
vn -0.9475 0.3196 0.0000
vn 0.0000 0.0000 -1.0000
vn 0.1827 0.1162 0.9763
vn 0.7369 0.0403 0.6748
vn 0.1042 0.0271 0.9942
vn 0.1142 -0.0279 0.9931
vn 0.7479 -0.0261 0.6633
vn 0.1932 -0.1004 0.9760
vn -0.0006 -0.7058 0.7084
vn -0.0006 0.7061 0.7081
vn -0.0000 1.0000 0.0000
vn -0.0473 0.6377 -0.7688
vn -0.5301 0.6378 -0.5587
vn 0.4584 0.6376 -0.6192
vn -0.7653 0.6377 -0.0873
vn -0.6500 0.6448 0.4022
vn 0.6944 0.6400 0.3289
vn 0.7490 0.6377 -0.1798
vn 0.0000 -1.0000 0.0000
vn 0.9210 -0.0028 0.3896
vn 0.9910 0.0069 0.1335
vn 0.9911 0.0085 0.1328
vn 0.9297 0.0026 0.3682
vn 0.9158 0.0059 0.4015
vn 0.7989 -0.0141 0.6013
vn 0.8210 0.0045 0.5709
vn 0.7358 -0.0560 0.6749
vn 0.6013 0.0143 0.7989
vn 0.6749 0.0560 0.7358
vn 0.5709 -0.0045 0.8210
vn 0.4066 -0.0070 0.9136
vn 0.3749 -0.0033 0.9271
vn 0.2581 0.0087 0.9661
vn 0.2527 0.0000 0.9675
vn 0.0632 -0.0037 0.9980
vn 0.0655 0.0000 0.9979
vn -0.0437 0.0026 0.9990
vn -0.0720 -0.0080 0.9974
vn -0.4207 0.0081 0.9072
vn -0.4654 -0.0065 0.8851
vn -0.6633 0.0131 0.7483
vn -0.6779 0.0000 0.7351
vn -0.9038 -0.0036 0.4280
vn -0.9012 0.0000 0.4333
vn -0.9752 -0.0060 0.2211
vn -0.9752 -0.0078 0.2210
vn 0.9935 -0.0057 -0.1134
vn 0.8504 -0.0038 0.5261
vn 0.6841 0.0208 0.7291
vn 0.6770 0.0000 0.7360
vn 0.2893 -0.0209 0.9570
vn 0.2989 0.0000 0.9543
vn 0.0507 -0.0019 0.9987
vn -0.0507 0.0019 0.9987
vn -0.2893 0.0209 0.9570
vn -0.2989 0.0000 0.9543
vn -0.6841 -0.0208 0.7291
vn -0.6770 0.0000 0.7360
vn -0.9037 0.0000 0.4281
vn -0.9724 -0.0057 -0.2334
vn -0.5949 -0.0053 -0.8038
vn 0.0609 -0.0063 -0.9981
vn 0.6882 -0.0057 -0.7255
vn -0.3285 0.8685 0.3712
vn -0.3193 0.6534 0.6863
vn 0.5585 -0.7989 0.2233
vn 0.7248 -0.6817 0.0998
vn -0.0716 -0.0081 0.9974
vn -0.0441 0.0024 0.9990
vn -0.4646 -0.0063 0.8855
vn -0.9039 -0.0034 0.4277
vn -0.9751 -0.0047 0.2218
vn -0.9752 -0.0071 0.2214
vn 0.9904 0.0076 0.1382
vn 0.9292 0.0030 0.3694
vn 0.9165 0.0052 0.4000
vn 0.8018 -0.0110 0.5975
vn 0.8197 0.0032 0.5728
vn 0.7360 -0.0509 0.6751
vn 0.5975 0.0110 0.8018
vn 0.6751 0.0509 0.7360
vn 0.5728 -0.0032 0.8197
vn 0.4053 -0.0062 0.9142
vn 0.3760 -0.0035 0.9266
vn 0.2586 0.0085 0.9660
vn 0.0630 -0.0036 0.9980
vn 0.1565 0.0000 -0.9877
vn -0.1565 0.0000 -0.9877
vn -0.4539 0.0000 -0.8910
vn -0.7071 0.0000 -0.7071
vn -0.8910 0.0000 -0.4539
vn -0.9877 0.0000 -0.1565
vn -0.9825 -0.0240 0.1849
vn -0.9806 0.0000 0.1962
vn -0.9193 0.0732 0.3867
vn -0.9602 -0.0076 0.2793
vn -0.8467 0.1488 0.5109
vn -0.6519 -0.0731 0.7548
vn -0.7476 -0.1488 0.6472
vn -0.5624 0.0076 0.8269
vn -0.4794 0.0240 0.8773
vn -0.4895 0.0000 0.8720
vn -0.1565 0.0000 0.9877
vn 0.1565 0.0000 0.9877
vn 0.4794 -0.0240 0.8773
vn 0.4895 0.0000 0.8720
vn 0.6519 0.0731 0.7548
vn 0.5624 -0.0076 0.8269
vn 0.7476 0.1488 0.6472
vn 0.9193 -0.0732 0.3867
vn 0.8464 -0.1488 0.5113
vn 0.9602 0.0076 0.2793
vn 0.9825 0.0240 0.1849
vn 0.9806 0.0000 0.1962
vn 0.9877 0.0000 -0.1565
vn 0.8910 0.0000 -0.4539
vn 0.7071 0.0000 -0.7071
vn 0.4539 0.0000 -0.8910
vn 1.0000 0.0000 0.0000
vn -1.0000 0.0026 0.0016
vn -1.0000 0.0016 0.0008
vn -1.0000 -0.0044 0.0020
vn -1.0000 -0.0023 0.0010
usemtl Default_OBJ
s 1
f 1//1 2//1 3//1
f 3//2 2//2 4//2
f 3//2 4//2 5//2
f 5//3 4//4 6//3
f 5//3 6//3 7//3
f 7//5 6//5 8//5
f 7//5 8//5 9//5
f 9//6 8//6 10//6
f 9//6 10//6 11//6
f 11//7 10//7 12//7
f 11//7 12//7 13//7
f 13//8 12//9 14//10
f 13//8 14//10 15//11
f 15//11 14//10 16//12
f 15//11 16//12 17//13
f 17//14 16//15 18//16
f 17//14 18//16 19//17
f 19//18 18//19 20//20
f 19//18 20//20 21//21
f 19//18 21//21 22//22
f 22//23 21//24 23//25
f 22//23 23//25 24//26
f 24//26 23//25 25//27
f 25//28 23//29 26//30
f 25//28 26//30 27//31
f 25//28 27//31 28//32
f 28//32 27//31 29//33
f 29//34 27//35 30//36
f 29//34 30//36 31//37
f 29//34 31//37 32//38
f 32//39 31//40 33//41
f 32//39 33//41 34//42
f 34//42 33//41 35//43
f 35//44 33//45 36//46
f 35//44 36//46 37//47
f 37//48 36//49 38//50
f 37//48 38//50 39//51
f 39//51 38//50 40//52
f 39//51 40//52 41//53
f 41//54 40//54 42//54
f 41//54 42//54 43//54
f 43//55 42//55 44//55
f 43//55 44//55 45//55
f 45//56 44//56 46//56
f 45//56 46//56 47//56
f 47//57 46//57 48//57
f 47//57 48//57 1//58
f 1//1 48//1 2//1
f 36//59 33//59 14//59
f 36//59 14//59 38//59
f 38//59 14//59 12//59
f 44//59 42//59 12//59
f 14//59 33//59 31//59
f 14//59 31//59 30//59
f 30//59 27//59 14//59
f 14//59 27//59 26//59
f 10//59 8//59 48//59
f 48//59 8//59 6//59
f 48//59 6//59 49//59
f 49//59 6//59 4//59
f 10//59 48//59 12//59
f 12//59 48//59 46//59
f 12//59 46//59 44//59
f 42//59 40//59 12//59
f 12//59 40//59 38//59
f 26//59 23//59 14//59
f 14//59 23//59 21//59
f 21//59 20//59 14//59
f 14//59 20//59 18//59
f 14//59 18//59 16//59
f 50//60 51//61 52//62
f 53//63 54//64 55//65
f 56//66 57//67 55//65
f 55//65 57//67 50//60
f 55//65 50//60 53//63
f 53//63 50//60 52//62
f 60//68 61//69 58//70
f 60//68 63//68 61//69
f 61//69 63//68 64//71
f 60//68 58//70 59//72
f 60//68 59//72 65//68
f 65//68 59//72 62//73
f 67//74 66//75 64//71
f 67//74 64//71 63//68
f 52//76 51//76 68//76
f 68//76 51//76 69//76
f 69//76 51//76 70//76
f 71//76 69//76 72//76
f 69//76 70//76 73//76
f 69//76 74//76 75//76
f 72//76 76//76 71//76
f 71//76 76//76 77//76
f 69//76 75//76 78//76
f 69//76 78//76 72//76
f 73//76 79//76 69//76
f 69//76 79//76 74//76
f 51//61 50//60 80//77
f 50//60 57//67 80//68
f 81//68 82//68 83//68
f 84//68 85//68 86//68
f 57//67 87//68 88//68
f 86//68 85//68 89//68
f 87//68 57//67 90//68
f 87//68 90//68 82//68
f 82//68 90//68 83//68
f 81//68 91//68 82//68
f 82//68 91//68 92//68
f 92//68 91//68 93//68
f 92//68 93//68 94//68
f 94//68 93//68 95//68
f 94//68 95//68 96//68
f 96//68 95//68 89//68
f 96//68 89//68 85//68
f 57//67 88//68 97//68
f 57//67 97//68 80//68
f 80//68 97//68 98//68
f 80//68 98//68 99//68
f 84//68 86//68 100//68
f 84//68 100//68 98//68
f 98//68 100//68 99//68
f 70//78 99//79 100//80
f 70//78 100//80 73//81
f 73//81 100//80 86//82
f 73//81 86//82 79//83
f 79//83 86//82 74//84
f 74//85 86//86 89//87
f 74//85 89//87 95//88
f 74//85 95//88 75//89
f 75//89 95//88 93//90
f 75//89 93//90 78//91
f 78//92 93//93 91//94
f 78//92 91//94 72//95
f 99//79 70//78 80//77
f 80//77 70//78 51//61
f 72//95 91//94 81//96
f 72//95 81//96 76//97
f 76//97 81//96 83//98
f 76//97 83//98 77//99
f 77//100 83//101 90//102
f 77//100 90//102 71//103
f 84//104 66//75 67//74
f 84//104 67//74 85//105
f 85//105 67//74 63//106
f 85//105 63//106 96//107
f 96//108 63//109 60//110
f 96//108 60//110 94//111
f 94//111 60//110 65//112
f 94//111 65//112 92//113
f 92//114 65//115 62//73
f 92//114 62//73 82//116
f 82//116 62//73 59//72
f 82//116 59//72 87//117
f 87//117 59//72 58//70
f 87//117 58//70 88//118
f 88//118 58//70 61//69
f 88//118 61//69 97//119
f 97//119 61//69 64//71
f 97//119 64//71 98//120
f 98//120 64//71 66//75
f 98//120 66//75 84//104
f 101//76 102//76 103//76
f 103//76 102//76 104//76
f 104//76 105//76 103//76
f 103//76 105//76 106//76
f 103//76 106//76 107//76
f 103//76 108//76 109//76
f 109//76 108//76 110//76
f 103//76 111//76 101//76
f 101//76 111//76 112//76
f 101//76 112//76 113//76
f 113//76 114//76 101//76
f 101//76 114//76 115//76
f 101//76 115//76 116//76
f 116//76 115//76 117//76
f 107//76 118//76 103//76
f 103//76 118//76 108//76
f 53//68 119//68 54//68
f 54//68 119//68 120//68
f 121//68 122//68 120//68
f 123//68 124//68 120//68
f 120//68 124//68 54//68
f 126//121 125//122 127//68
f 126//121 127//68 128//68
f 122//68 129//68 120//68
f 120//68 129//68 123//68
f 128//68 127//68 120//68
f 120//68 127//68 130//68
f 120//68 130//68 121//68
f 55//65 54//64 131//123
f 131//123 132//76 133//76
f 134//76 135//76 55//65
f 55//65 135//76 56//66
f 133//76 138//76 131//123
f 131//123 138//76 139//76
f 131//123 139//76 55//76
f 55//76 139//76 140//76
f 55//76 140//76 134//76
f 135//76 142//76 56//66
f 56//66 142//76 143//76
f 56//66 143//76 136//76
f 136//76 143//76 144//76
f 136//76 144//76 137//76
f 145//76 146//76 147//76
f 147//76 146//76 137//76
f 137//76 146//76 148//76
f 137//76 148//76 136//76
f 141//124 149//76 131//123
f 131//123 149//76 150//76
f 145//76 147//76 151//76
f 151//76 147//76 152//76
f 151//76 152//76 153//76
f 153//76 152//76 154//76
f 153//76 154//76 155//76
f 153//76 155//76 156//76
f 156//76 155//76 157//76
f 156//76 157//76 158//76
f 150//76 156//76 131//123
f 131//123 156//76 158//76
f 131//123 158//76 159//76
f 131//123 159//76 132//76
f 145//125 127//126 125//122
f 145//125 125//122 146//127
f 146//127 125//122 126//121
f 146//127 126//121 148//99
f 148//128 126//101 128//129
f 148//128 128//129 136//130
f 124//131 141//124 54//64
f 54//64 141//124 131//123
f 141//124 124//131 123//132
f 141//124 123//132 149//133
f 149//133 123//132 129//134
f 149//133 129//134 150//135
f 150//135 129//134 156//136
f 156//137 129//138 122//139
f 156//137 122//139 121//140
f 156//137 121//140 153//141
f 153//141 121//140 130//142
f 153//141 130//142 151//91
f 151//143 130//93 127//126
f 151//143 127//126 145//125
f 139//144 160//144 161//144
f 161//145 160//145 111//145
f 161//145 111//145 134//145
f 134//146 111//146 103//146
f 134//146 103//146 135//146
f 135//147 103//147 109//147
f 135//147 109//147 142//147
f 142//148 109//148 110//148
f 142//148 110//148 143//148
f 143//149 110//149 108//149
f 143//149 108//149 144//149
f 144//150 108//151 118//152
f 144//150 118//152 137//153
f 137//153 118//152 147//154
f 147//155 118//156 107//157
f 147//155 107//157 106//158
f 147//155 106//158 152//159
f 152//160 106//160 105//160
f 152//160 105//160 162//160
f 162//161 105//161 104//161
f 162//161 104//161 155//161
f 155//162 104//163 102//164
f 155//162 102//164 157//165
f 157//165 102//164 158//166
f 158//167 102//168 101//169
f 158//167 101//169 116//170
f 158//167 116//170 159//171
f 159//172 116//172 117//172
f 159//172 117//172 132//172
f 132//173 117//173 115//173
f 132//173 115//173 133//173
f 133//174 115//174 114//174
f 133//174 114//174 138//174
f 138//175 114//175 113//175
f 138//175 113//175 139//175
f 139//144 113//144 160//144
f 120//59 25//59 69//59
f 69//59 25//59 28//59
f 69//59 28//59 29//59
f 69//59 29//59 32//59
f 69//59 32//59 34//59
f 120//59 19//59 22//59
f 68//59 39//59 41//59
f 7//59 9//59 119//59
f 119//59 9//59 11//59
f 119//59 11//59 13//59
f 13//59 15//59 119//59
f 119//59 15//59 120//59
f 120//59 15//59 17//59
f 120//59 17//59 19//59
f 22//59 24//59 120//59
f 120//59 24//59 25//59
f 34//59 35//59 69//59
f 69//59 35//59 37//59
f 69//59 37//59 68//59
f 68//59 37//59 39//59
f 41//59 43//59 68//59
f 68//59 43//59 45//59
f 68//59 45//59 47//59
f 47//59 1//59 68//59
f 68//59 1//59 163//59
f 68//59 163//59 119//59
f 119//59 163//59 5//59
f 119//59 5//59 7//59
f 68//176 119//176 52//176
f 52//176 119//176 53//176
f 136//130 128//129 56//177
f 56//177 128//129 120//178
f 56//177 120//178 57//179
f 57//179 120//178 69//180
f 57//179 69//180 90//102
f 90//102 69//180 71//103
